<svg viewBox="0 0 32 32" fill="none" xmlns="http://www.w3.org/2000/svg"><g clip-path="url(#a)"><rect width="32" height="32" rx="8" fill="#3D3BFF"/><path d="M15.613 24.376h.003c1.752 0 3.189-.499 4.19-1.351 1.002-.853 1.56-2.055 1.56-3.445 0-1.507-.612-2.58-1.555-3.374-.938-.79-2.201-1.301-3.505-1.7-1.417-.43-2.31-.863-2.85-1.35-.532-.482-.724-1.022-.724-1.693 0-.728.39-1.35.989-1.795.6-.445 1.406-.705 2.218-.705 1.304 0 2.374.664 3.517 1.669l.074.065.066-.073 1.14-1.257.068-.075-.076-.067C19.412 8.056 18.044 7.13 15.86 7.13c-2.922 0-4.996 1.98-4.996 4.413 0 1.223.402 2.166 1.203 2.921.796.751 1.98 1.31 3.53 1.78 1.352.414 2.337.88 2.984 1.434.642.552.95 1.191.95 1.966 0 .93-.5 1.657-1.246 2.157-.747.5-1.737.767-2.691.767-1.708 0-2.96-.973-4.043-1.996l-.074-.07-.068.075-1.16 1.273-.062.069.064.067a7.679 7.679 0 0 0 5.363 2.39Z" fill="#fff" stroke="#fff" stroke-width=".2"/></g><defs><clipPath id="a"><path fill="#fff" d="M0 0h32v32H0z"/></clipPath></defs></svg>